# xmcd
#
# Track frame offsets:
#	182
#	19772
#	32460
#	47387
#	63660
#	74852
#	89132
#	104122
#	119350
#	135802
#
# Disc length: 1993 seconds
#
# Revision: 3
# Processed by: cddbd v1.5.2PL0 Copyright (c) Steve Scherf et al.
# Submitted via: EZCDAudioConverter 7.1.4.1
#
DISCID=8e07c70a
DTITLE=Various Artist - Hard Drivin' Country
DYEAR=1991
DGENRE=Country
TTITLE0=Travis Tritt - Put Some Drive In Your Country
TTITLE1=Dwight Yoakam - Honky Tonk Man
TTITLE2=T.Graham Brown - Darlene
TTITLE3=Billy Hill - I Can't Help Myself (Sugar Pie Honey Bunch)
TTITLE4=Texas Tornados - Who Were You Thinkin' Of
TTITLE5=The Kentucky Headhunters - Oh Lonesome Me
TTITLE6=Highway 101 - Someone Else's Trouble Now
TTITLE7=John Anderson - It's All Over Now
TTITLE8=Southern Pacific - Any Way The Wind Blows
TTITLE9=Hank Williams, Jr. - Good Friends, Good Whiskey, Good Lovin'
EXTD=
EXTT0=
EXTT1=
EXTT2=
EXTT3=
EXTT4=
EXTT5=
EXTT6=
EXTT7=
EXTT8=
EXTT9=
PLAYORDER=
